# xmcd
#
# Track frame offsets: 
#        150
#        18568
#        39349
#        63371
#        84761
#        99376
#        118516
#        144121
#
# Disc length: 2314 seconds
#
# Revision: 0
# Processed by: cddbd v1.5.2PL0 Copyright (c) Steve Scherf et al.
# Submitted via: ExactAudioCopy v0.95b3
#
DISCID=55090808
DTITLE=Blue Oyster Cult  - Secret Treaties - QUAD Mix  
DYEAR=1900
DGENRE=
TTITLE0=Career of Evil
TTITLE1=Subhuman
TTITLE2=Dominance and Submission
TTITLE3=Me 262
TTITLE4=Cagey Cretins
TTITLE5=Harvester of Eyes
TTITLE6=Flaming Telepaths
TTITLE7=Astronomy
EXTD=
EXTT0=
EXTT1=
EXTT2=
EXTT3=
EXTT4=
EXTT5=
EXTT6=
EXTT7=
PLAYORDER=
